IKResults																																			
version=1																																			
nRows=13																																			
nColumns=36																																			
inDegrees=yes																																			
																																			
"Units are S.I. units (second, meters, Newtons, ...)"																																			
"If the header above contains a line with 'inDegrees', this indicates whether rotational values are in degrees (yes) or radians (no)."																																			
																																			
endheader																																			
time	pelvis_tilt	pelvis_list	pelvis_rotation	pelvis_tx	pelvis_ty	pelvis_tz	hip_flexion_r	hip_adduction_r	hip_rotation_r	knee_angle_r	knee_angle_r_beta	ankle_angle_r	hip_flexion_l	hip_adduction_l	hip_rotation_l	knee_angle_l	knee_angle_l_beta	ankle_angle_l	lumbar_extension	lumbar_bending	lumbar_rotation	arm_flex_r	arm_add_r	arm_rot_r	elbow_flex_r	pro_sup_r	wrist_flex_r	wrist_dev_r	arm_flex_l	arm_add_l	arm_rot_l	elbow_flex_l	pro_sup_l	wrist_flex_l	wrist_dev_l
3.99	3.00187817	7.68374096	169.3897763	0	0.83709647	-0.37539111	29.62522484	5.55417372	-13.46684873	18.13154001	0.31645507	4.43504836	-0.67021495	-7.55046307	-17.33562216	0.28473593	0.00496958	10.29499404	-8.93694595	-3.2316639	-2.41309606	3.15589537	-4.60197574	-15.93879289	35.29425358	53.30190445	0	0	1.29488374	-10.73653271	-6.02689076	39.8513141	50.25453575	0	0
4	3.2157108	7.74143423	169.5881023	0	0.83606588	-0.37631528	29.57235415	6.04199548	-12.04163642	15.90129195	0.2775299	3.97418419	-0.83575639	-7.66164294	-17.349868	0.27794272	0.00485102	10.60602369	-8.75295971	-2.93544924	-3.17098045	2.92168028	-4.68727731	-15.98533021	35.23412342	53.3019471	0	0	1.9700935	-10.72949895	-5.98338272	40.05438361	50.26337914	0	0
4.01	3.4128426	7.78087566	169.8243254	0	0.83498906	-0.37720427	29.43888318	6.43463313	-10.47124732	13.80302882	0.2409083	3.59778767	-1.01097703	-7.7412954	-17.28157279	0.27259368	0.00475766	10.93283817	-9.03281933	-2.41229756	-3.45761874	2.75567747	-4.83408841	-16.06443202	35.13628395	53.30693859	0	0	2.87675099	-10.65896475	-5.91330373	40.44362745	50.28042136	0	0
4.02	3.69661302	7.75672984	170.1007139	0	0.83374211	-0.37802919	29.39470743	6.67007124	-8.84882379	11.95448939	0.2086452	3.29946908	-1.07351774	-7.7511061	-17.01974414	0.26748544	0.0046685	11.29897354	-9.04165536	-2.1156293	-3.95325297	2.42105791	-4.97189681	-16.19362486	35.07077534	53.31513981	0	0	3.70794393	-10.623397	-5.81794092	40.87112317	50.29716789	0	0
4.03	3.79680284	7.82173136	170.3621618	0	0.83268295	-0.37889652	29.07329186	6.91783269	-7.2329329	10.23141111	0.17857181	2.93035615	-1.36708629	-7.83473829	-16.93176901	0.26552524	0.00463429	11.62913263	-8.96346922	-1.76548546	-4.55340582	2.24357636	-5.0564194	-16.26858381	35.05508717	53.31960757	0	0	4.46237797	-10.66076208	-5.75317892	41.19729834	50.31037685	0	0
4.04	3.75701785	7.93381559	170.6489062	0	0.83175708	-0.37973569	28.60954401	7.10491985	-5.78026618	8.79892225	0.15357016	2.53841275	-1.81760063	-7.9596084	-16.92450562	0.2675625	0.00466985	11.90711954	-9.16569212	-1.3716281	-4.91899254	1.90437938	-5.25427376	-16.4679579	35.05899776	53.33576453	0	0	5.26888767	-10.59970443	-5.59643256	41.83930592	50.33386938	0	0
4.05	3.91912282	7.89188487	170.9585689	0	0.83053819	-0.38047388	28.53948981	7.05979436	-4.6803971	7.89963718	0.13787468	2.25237587	-2.0133542	-7.91503878	-16.60106745	0.26770467	0.00467233	12.24130334	-9.34636498	-1.11283014	-5.25305253	1.4717752	-5.28808048	-17.4428316	35.50213489	53.44155078	0	0	5.84645563	-10.71686794	-4.70321285	44.11841545	50.3927229	0	0
4.06	4.02792759	7.90391357	171.2271409	0	0.82930039	-0.38125791	28.72722979	6.97519439	-4.5780937	7.82999725	0.13665923	2.21348978	-2.2793326	-7.97068395	-16.6658301	0.27541936	0.00480697	12.30027981	-9.27735059	-0.72005522	-5.87771538	1.38973412	-5.29794039	-17.54698045	35.50357179	53.45094249	0	0	6.47032071	-10.85670326	-4.58051554	44.44968318	50.40282837	0	0
4.07	3.88396928	8.0776623	171.5063665	0	0.82860702	-0.3821172	28.07539654	7.12398937	-3.27996856	6.91117742	0.1206228	1.35773291	-2.87801232	-8.12158299	-16.41967305	0.27670127	0.00482935	12.73025688	-9.50052704	-0.53148209	-6.28572424	1.2579951	-5.39272276	-17.73566783	35.464448	53.46581047	0	0	7.15455812	-10.90707586	-4.35798544	45.04163477	50.42020386	0	0
4.08	3.97769153	8.11597596	171.7665237	0	0.82753818	-0.38297134	28.17747861	7.0622568	-3.19550601	7.06902856	0.12337782	0.87173468	-3.18552973	-8.17867658	-16.19013789	0.28372947	0.00495201	12.97198976	-9.63858742	-0.46606408	-6.83283185	1.17991665	-5.12587645	-19.43376018	35.5800486	53.63100826	0	0	7.03474669	-11.69084851	-2.0946665	48.25490613	50.46241046	0	0
4.09	4.044654	8.20852054	171.9810764	0	0.82659444	-0.38396998	28.24451787	7.08113563	-3.04151064	7.40265744	0.12920075	0.46068049	-3.54300947	-8.31727752	-16.10705355	0.29829332	0.0052062	13.02755598	-9.64581394	-0.32999412	-7.40116235	0.98187589	-5.17995068	-19.54301082	35.49030778	53.6370199	0	0	7.78401275	-11.72373409	-1.95947144	48.59394706	50.47442004	0	0
4.1	3.96980829	8.28387399	172.1913532	0	0.82584774	-0.38493382	28.35191062	7.01288183	-3.73890448	8.12142442	0.1417456	-0.41663278	-4.05809941	-8.40221085	-15.9864928	0.30251814	0.00527994	13.23704166	-9.76450828	-0.4007968	-7.85394417	0.82190264	-5.19735336	-19.6769836	35.41830258	53.6469446	0	0	8.53094022	-11.80250241	-1.78204455	49.11217004	50.49261434	0	0
4.11	3.99806417	8.3690503	172.3638023	0	0.82509307	-0.3860115	28.60951877	6.97471845	-4.47415251	9.03572625	0.15770317	-1.10868781	-4.46669836	-8.52126826	-15.80181749	0.3162944	0.00552038	13.29847187	-9.82227734	-0.40641886	-8.34221949	0.62053584	-5.20551807	-19.94422512	35.3273122	53.66881971	0	0	9.06924598	-11.90756422	-1.40990235	49.97779941	50.51878738	0	0
